<?xml version="1.0" encoding="utf-8"?>
<!-- Generator: Adobe Illustrator 26.0.3, SVG Export Plug-In . SVG Version: 6.00 Build 0)  -->
<svg version="1.1" id="Capa_1" xmlns="http://www.w3.org/2000/svg" xmlns:xlink="http://www.w3.org/1999/xlink" x="0px" y="0px"
	 width="306px" height="75px" viewBox="0 0 306 75" style="enable-background:new 0 0 306 75;" xml:space="preserve">
<style type="text/css">
	.st0{fill:#617179;}
	.st1{fill:#C7A1CB;}
</style>
<g>
	<g>
		<g>
			<path class="st0" d="M47.1,59.2h-2.6V43.4h16.1V46C54.3,46,47.1,51.8,47.1,59.2L47.1,59.2z M47.1,46v4.8c1.3-2,3.1-3.6,5-4.8
				H47.1z"/>
			<path class="st0" d="M61.9,31.6H44.5l0-1.3c0-3.8,0-8.6,0-14.4l0-1.3h1.3c8.9,0,16.1,7.1,16.1,15.8V31.6z M47.1,29h12.1
				c-0.6-6.2-5.7-11.2-12.1-11.8C47.1,21.8,47.1,25.7,47.1,29z"/>
			<path class="st1" d="M76.8,46.1H59.2l0-1.4c0-3.9,0-8.6,0-14.4l0-1.4h1.4c8.9,0,16.2,7.1,16.2,15.8V46.1z M62,43.4h12
				c-0.7-6.1-5.7-11-12-11.7C62,36.3,62,40.1,62,43.4z"/>
			<path class="st1" d="M32.3,31.6H31c-8.9,0-16.2-7.1-16.2-15.8C14.8,7.1,22,0,31,0c8.9,0,16.2,7.1,16.2,15.8v1.4H32.3
				c0,3.7,0,9.9,0,13.1L32.3,31.6z M31,2.7c-7.4,0-13.5,5.9-13.5,13.1c0,6.8,5.3,12.4,12.1,13c0-3.9,0-10.1,0-13v-1.4h14.8
				C43.6,7.9,37.9,2.7,31,2.7z"/>
			<path class="st0" d="M17.4,46l-1.3,0c-3.9,0-8.8,0-14.8,0L0,46v-1.3C0,36,7.2,29,16.1,29h1.3V46z M7.9,43.4c2.6,0,4.9,0,7,0V31.6
				C8.4,32.2,3.3,37.2,2.7,43.4C4.5,43.4,6.2,43.4,7.9,43.4z"/>
			<path class="st0" d="M32.3,59.2h-2.6c0-6.1-5.9-13.1-13.5-13.1h-2v-2.6h18.1V59.2z M24.7,46c2,1.3,3.7,3,4.9,5v-5H24.7z"/>
			<path class="st1" d="M47.1,75h-1.4c-8.9,0-16.2-7.1-16.2-15.8v-1.4h17.5l0,1.4c0,3.9,0,8.6,0,14.4L47.1,75z M32.4,60.5
				c0.7,6.1,5.7,11,12,11.7c0-4.6,0-8.4,0-11.7H32.4z"/>
		</g>
		<g>
			<g>
				<path class="st0" d="M98.5,26.8c0,0.9-0.8,1.7-1.8,1.7c-3,0-5.4,2.4-5.4,5.3v7c0,0.9-0.8,1.7-1.7,1.7c-1,0-1.8-0.8-1.8-1.7v-7
					c0-4.8,4-8.7,8.9-8.7C97.7,25.1,98.5,25.9,98.5,26.8z"/>
				<path class="st0" d="M116,33.8c0,0.9-0.8,1.7-1.8,1.7H102c0.7,2.1,2.7,3.6,5.1,3.6c0.8,0,2.3-0.1,4-1.1c0.8-0.5,1.9,0,2.3,0.8
					c0.4,0.9,0,1.8-0.9,2.3c-2.3,1.5-4.2,1.5-5.5,1.5c-4.9,0-8.9-3.9-8.9-8.7c0-4.8,4-8.7,8.9-8.7C111.4,25.1,116,28.1,116,33.8z
					 M102,32h10.3c-0.7-2.4-3-3.5-5.1-3.5C104.7,28.5,102.7,30,102,32z"/>
				<path class="st0" d="M118,33.8c0-4.8,4-8.7,8.9-8.7c3.2,0,6.1,1.7,7.7,4.3c0.5,0.8,0.2,1.9-0.6,2.4c-0.9,0.5-1.9,0.2-2.4-0.6
					c-1-1.6-2.7-2.6-4.7-2.6c-2.9,0-5.4,2.4-5.4,5.3c0,2.9,2.4,5.3,5.4,5.3c1.8,0,3.6-0.9,4.5-2.4c0.5-0.8,1.6-1,2.4-0.5
					c0.8,0.5,1,1.6,0.5,2.4c-1.6,2.5-4.4,4-7.5,4C122,42.5,118,38.6,118,33.8z"/>
				<path class="st0" d="M136.3,33.8c0-4.8,4-8.7,8.9-8.7c4.9,0,8.9,3.9,8.9,8.7c0,4.8-4,8.7-8.9,8.7
					C140.3,42.5,136.3,38.6,136.3,33.8z M139.8,33.8c0,2.9,2.4,5.3,5.4,5.3c3,0,5.4-2.4,5.4-5.3c0-2.9-2.4-5.3-5.4-5.3
					C142.2,28.5,139.8,30.9,139.8,33.8z"/>
				<path class="st0" d="M155.9,40.8V18.2c0-0.9,0.8-1.7,1.8-1.7c1,0,1.7,0.8,1.7,1.7v22.6c0,1-0.8,1.7-1.7,1.7
					C156.7,42.5,155.9,41.7,155.9,40.8z"/>
				<path class="st0" d="M179.2,33.8c0,0.9-0.8,1.7-1.8,1.7h-12.3c0.7,2.1,2.7,3.6,5.1,3.6c0.8,0,2.3-0.1,4-1.1
					c0.8-0.5,1.9,0,2.3,0.8c0.4,0.9,0,1.8-0.9,2.3c-2.3,1.5-4.2,1.5-5.5,1.5c-4.9,0-8.9-3.9-8.9-8.7c0-4.8,4-8.7,8.9-8.7
					C174.6,25.1,179.2,28.1,179.2,33.8z M165.2,32h10.3c-0.7-2.4-3-3.5-5.1-3.5C167.9,28.5,166,30,165.2,32z"/>
				<path class="st0" d="M191.2,26.8c0,0.9-0.8,1.7-1.8,1.7h-2.5v12.2c0,0.9-0.8,1.7-1.8,1.7c-1,0-1.7-0.8-1.7-1.7V28.5h-2.6
					c-1,0-1.7-0.8-1.7-1.7c0-0.9,0.8-1.7,1.7-1.7h2.6v-6.9c0-0.9,0.8-1.7,1.7-1.7c1,0,1.8,0.8,1.8,1.7v6.9h2.5
					C190.5,25.1,191.2,25.9,191.2,26.8z"/>
				<path class="st0" d="M208.6,33.9v6.8c0,1-0.7,1.7-1.8,1.7c-0.7,0-1.7-0.7-1.7-1.7c-1.5,1.2-3.2,1.7-5.3,1.7c-5,0-9-3.6-9-8.5
					c0-4.9,4-8.8,9-8.8S208.6,29,208.6,33.9z M205.1,33.9c0-2.9-2.3-5.4-5.3-5.4s-5.5,2.5-5.5,5.4s2.5,5.1,5.5,5.1
					S205.1,36.8,205.1,33.9z"/>
				<path class="st0" d="M221.2,37.3c0,2.9-2.4,5.2-5.3,5.2c-2.5,0-4.5-1.8-5.2-3.8c-0.3-0.9,0.4-1.8,1.3-2c1-0.2,1.6,0.5,2.1,1.4
					c0.5,0.9,0.9,1,1.8,1c1,0,1.8-0.8,1.8-1.8c0-1-0.8-1.8-1.8-1.8c-1.4,0-2.8-0.6-3.8-1.5c-1-1-1.6-2.3-1.6-3.7
					c0-2.9,2.4-5.2,5.3-5.2c2.5,0,4.8,1.7,5.1,3.6c0.2,0.9-0.4,1.9-1.3,2c-1,0.2-1.8-0.4-2.1-1.3c-0.2-0.6-0.8-0.9-1.7-0.9
					c-1,0-1.8,0.8-1.8,1.8c0,1,0.8,1.8,1.8,1.8c1.4,0,2.8,0.6,3.8,1.5C220.7,34.6,221.2,35.9,221.2,37.3z"/>
				<g>
					<path class="st1" d="M244.2,37.3c0,2.9-2.4,5.2-5.3,5.2c-2.5,0-4.5-1.8-5.2-3.8c-0.3-0.9,0.4-1.8,1.3-2c1-0.2,1.6,0.5,2.1,1.4
						c0.5,0.9,0.9,1,1.8,1c1,0,1.8-0.8,1.8-1.8c0-1-0.8-1.8-1.8-1.8c-1.4,0-2.8-0.6-3.8-1.5c-1-1-1.6-2.3-1.6-3.7
						c0-2.9,2.4-5.2,5.3-5.2c2.5,0,4.8,1.7,5.1,3.6c0.2,0.9-0.4,1.9-1.3,2c-1,0.2-1.8-0.4-2.1-1.3c-0.2-0.6-0.8-0.9-1.7-0.9
						c-1,0-1.8,0.8-1.8,1.8c0,1,0.8,1.8,1.8,1.8c1.4,0,2.8,0.6,3.8,1.5C243.6,34.6,244.2,35.9,244.2,37.3z"/>
					<path class="st1" d="M238.9,42.7c-2.8,0-4.8-2-5.4-3.9c-0.1-0.4-0.1-0.9,0.1-1.3c0.3-0.5,0.8-0.9,1.4-1
						c0.9-0.2,1.7,0.3,2.3,1.5c0.4,0.8,0.8,0.9,1.6,0.9c0.9,0,1.6-0.7,1.6-1.6c0-0.9-0.7-1.6-1.6-1.6c-1.5,0-2.9-0.6-3.9-1.6
						c-1-1-1.6-2.3-1.6-3.8c0-3,2.5-5.4,5.5-5.4c2.5,0,4.9,1.7,5.3,3.8c0.1,0.5,0,1.1-0.3,1.5c-0.3,0.4-0.7,0.7-1.2,0.8
						c-1,0.2-1.9-0.4-2.3-1.4c-0.2-0.5-0.7-0.8-1.5-0.8c-0.9,0-1.6,0.7-1.6,1.6c0,0.9,0.7,1.6,1.6,1.6c1.5,0,2.9,0.6,3.9,1.6
						c1.1,1,1.6,2.4,1.6,3.8C244.4,40.3,241.9,42.7,238.9,42.7z M235.3,36.9c-0.1,0-0.2,0-0.3,0c-0.5,0.1-0.9,0.4-1.1,0.8
						c-0.1,0.2-0.2,0.6-0.1,1c0.6,1.8,2.4,3.6,5,3.6c2.8,0,5.1-2.3,5.1-5c0-1.3-0.5-2.6-1.5-3.5c-1-0.9-2.3-1.5-3.6-1.5
						c-1.1,0-2-0.9-2-2c0-1.1,0.9-2,2-2c0.9,0,1.6,0.4,1.9,1.1c0.3,0.7,1,1.4,1.9,1.2c0.4-0.1,0.7-0.3,1-0.6
						c0.2-0.3,0.3-0.8,0.2-1.2c-0.3-1.9-2.6-3.4-4.9-3.4c-2.8,0-5.1,2.2-5.1,5c0,1.4,0.5,2.6,1.5,3.5c1,0.9,2.3,1.5,3.6,1.5
						c1.1,0,2,0.9,2,2c0,1.1-0.9,2-2,2c-0.9,0-1.4-0.2-1.9-1.1C236.5,37.3,235.9,36.9,235.3,36.9z"/>
				</g>
				<g>
					<path class="st1" d="M263.4,33.9v6.8c0,1-0.7,1.7-1.8,1.7c-0.7,0-1.7-0.7-1.7-1.7c-1.5,1.2-3.2,1.7-5.3,1.7c-5,0-9-3.6-9-8.5
						c0-4.9,4-8.8,9-8.8C259.7,25.2,263.4,29,263.4,33.9z M259.9,33.9c0-2.9-2.3-5.4-5.3-5.4c-3,0-5.5,2.5-5.5,5.4s2.5,5.1,5.5,5.1
						C257.7,39,259.9,36.8,259.9,33.9z"/>
					<path class="st1" d="M261.7,42.6c-0.8,0-1.7-0.7-1.9-1.6c-1.4,1.1-3,1.6-5.1,1.6c-5.1,0-9.2-3.8-9.2-8.7c0-5,4-9,9.2-9
						c5,0,8.9,3.9,8.9,9v6.8C263.6,41.8,262.8,42.6,261.7,42.6z M260.1,40.3v0.4c0,0.9,0.9,1.5,1.5,1.5c0.9,0,1.6-0.6,1.6-1.5v-6.8
						c0-4.9-3.7-8.6-8.5-8.6c-4.9,0-8.8,3.8-8.8,8.6c0,4.7,3.8,8.3,8.8,8.3c2.1,0,3.7-0.5,5.1-1.7L260.1,40.3z M254.7,39.2
						c-3.1,0-5.7-2.4-5.7-5.3c0-3,2.6-5.6,5.7-5.6c3,0,5.5,2.5,5.5,5.6C260.1,37,257.8,39.2,254.7,39.2z M254.7,28.7
						c-2.9,0-5.3,2.4-5.3,5.2c0,2.7,2.4,4.9,5.3,4.9c2.9,0,5.1-2.1,5.1-4.9C259.7,31.1,257.5,28.7,254.7,28.7z"/>
				</g>
				<g>
					<path class="st1" d="M265.3,40.8V18.2c0-0.9,0.8-1.7,1.8-1.7c1,0,1.7,0.8,1.7,1.7v22.6c0,1-0.8,1.7-1.7,1.7
						C266.1,42.5,265.3,41.7,265.3,40.8z"/>
					<path class="st1" d="M267.1,42.7c-1.1,0-2-0.8-2-1.9V18.2c0-1,0.9-1.9,2-1.9c1.1,0,1.9,0.9,1.9,1.9v22.6
						C269,41.8,268.2,42.7,267.1,42.7z M267.1,16.7c-0.9,0-1.6,0.7-1.6,1.5v22.6c0,0.9,0.7,1.5,1.6,1.5c0.8,0,1.5-0.7,1.5-1.5V18.2
						C268.6,17.4,267.9,16.7,267.1,16.7z"/>
				</g>
				<g>
					<path class="st1" d="M285.2,26.8v8.7v0c0,3.8-3.2,7-7.2,7c-3.9,0-7.1-3.1-7.2-7v0v-8.7c0-0.9,0.8-1.7,1.7-1.7
						c1,0,1.8,0.8,1.8,1.7v8.7c0,2,1.6,3.6,3.7,3.6c2.1,0,3.7-1.6,3.7-3.6v-8.7c0-0.9,0.8-1.7,1.8-1.7
						C284.4,25.1,285.2,25.9,285.2,26.8z"/>
					<path class="st1" d="M278,42.7c-4,0-7.3-3.2-7.4-7.2v-8.7c0-1,0.9-1.9,1.9-1.9c1.1,0,2,0.9,2,1.9v8.7c0,1.9,1.6,3.4,3.5,3.4
						c1.9,0,3.5-1.5,3.5-3.4v-8.7c0-1,0.9-1.9,2-1.9c1.1,0,1.9,0.9,1.9,1.9v8.7C285.4,39.5,282.1,42.7,278,42.7z M272.6,25.3
						c-0.8,0-1.5,0.7-1.5,1.5v8.7c0,3.8,3.2,6.8,7,6.8c3.8,0,7-3,7-6.8v-8.7c0-0.8-0.7-1.5-1.5-1.5c-0.9,0-1.6,0.7-1.6,1.5v8.7
						c0,2.1-1.7,3.8-3.9,3.8c-2.1,0-3.9-1.7-3.9-3.8v-8.7C274.2,26,273.5,25.3,272.6,25.3z"/>
				</g>
				<g>
					<path class="st1" d="M301.4,26.8v-8.6c0-0.9,0.8-1.7,1.7-1.7c1,0,1.8,0.8,1.8,1.7v15.5v0c0,4.8-4,8.7-8.9,8.7
						c-4.9,0-8.9-3.9-8.9-8.7c0-4.8,4-8.7,8.9-8.7C298,25,299.9,25.7,301.4,26.8z M301.4,33.7L301.4,33.7c0-2.9-2.4-5.3-5.4-5.3
						c-3,0-5.4,2.4-5.4,5.3c0,2.9,2.4,5.3,5.4,5.3C299,39,301.4,36.6,301.4,33.7z"/>
					<path class="st1" d="M296,42.6c-5,0-9.1-4-9.1-8.9c0-4.9,4.1-8.9,9.1-8.9c1.9,0,3.7,0.6,5.2,1.6v-8.2c0-1,0.9-1.9,1.9-1.9
						c1.1,0,2,0.9,2,1.9v15.5C305.1,38.6,301,42.6,296,42.6z M296,25.2c-4.8,0-8.7,3.8-8.7,8.5c0,4.7,3.9,8.5,8.7,8.5
						c4.8,0,8.7-3.8,8.7-8.5V18.2c0-0.8-0.7-1.5-1.6-1.5c-0.8,0-1.5,0.7-1.5,1.5v9l-0.3-0.2C299.8,25.8,297.9,25.2,296,25.2z
						 M296,39.2c-3.1,0-5.6-2.5-5.6-5.5c0-3,2.5-5.5,5.6-5.5s5.6,2.4,5.6,5.4v0C301.6,36.7,299.1,39.2,296,39.2z M296,28.6
						c-2.9,0-5.2,2.3-5.2,5.1c0,2.8,2.3,5.1,5.2,5.1s5.2-2.3,5.2-5.1v0C301.2,30.9,298.9,28.6,296,28.6z"/>
				</g>
			</g>
		</g>
	</g>
	<g>
		<g>
			<g>
				<g>
					<path class="st0" d="M90.2,59.5c-0.5,0-1-0.1-1.4-0.2c-0.4-0.2-0.8-0.4-1.2-0.8l0.4-0.5c0.3,0.3,0.7,0.5,1,0.7
						c0.3,0.1,0.7,0.2,1.1,0.2c0.4,0,0.8-0.1,1-0.3c0.3-0.2,0.4-0.5,0.4-0.8v0c0-0.1,0-0.3-0.1-0.4c0-0.1-0.1-0.2-0.2-0.3
						C91.2,57,91,57,90.8,56.9c-0.2-0.1-0.5-0.2-0.8-0.2c-0.4-0.1-0.7-0.2-0.9-0.3c-0.3-0.1-0.5-0.2-0.7-0.4
						c-0.2-0.1-0.3-0.3-0.4-0.5c-0.1-0.2-0.1-0.4-0.1-0.7v0c0-0.2,0.1-0.5,0.2-0.7c0.1-0.2,0.2-0.4,0.4-0.5c0.2-0.2,0.4-0.3,0.6-0.4
						c0.2-0.1,0.5-0.1,0.8-0.1c0.5,0,0.9,0.1,1.2,0.2c0.3,0.1,0.7,0.3,1,0.6l-0.4,0.5c-0.3-0.2-0.6-0.4-0.9-0.5
						c-0.3-0.1-0.6-0.2-0.9-0.2c-0.4,0-0.7,0.1-1,0.3c-0.2,0.2-0.4,0.4-0.4,0.7v0c0,0.1,0,0.3,0.1,0.4c0,0.1,0.1,0.2,0.3,0.3
						c0.1,0.1,0.3,0.2,0.5,0.3c0.2,0.1,0.5,0.2,0.8,0.2c0.7,0.2,1.2,0.4,1.5,0.6c0.3,0.3,0.5,0.6,0.5,1.1v0c0,0.3-0.1,0.5-0.2,0.7
						c-0.1,0.2-0.3,0.4-0.4,0.6c-0.2,0.2-0.4,0.3-0.7,0.4C90.8,59.5,90.5,59.5,90.2,59.5z"/>
					<path class="st0" d="M98.9,53.2h0.7l2.8,6.3h-0.8l-0.7-1.6h-3.4l-0.7,1.6H96L98.9,53.2z M100.6,57.2L99.2,54l-1.4,3.2H100.6z"
						/>
					<path class="st0" d="M106.4,53.2h0.7v5.6h3.5v0.6h-4.2V53.2z"/>
					<path class="st0" d="M117.2,59.6c-0.4,0-0.7-0.1-1.1-0.2c-0.3-0.1-0.6-0.3-0.8-0.5c-0.2-0.2-0.4-0.5-0.5-0.9
						c-0.1-0.3-0.2-0.7-0.2-1.2v-3.6h0.7v3.6c0,0.7,0.2,1.2,0.5,1.6c0.3,0.4,0.8,0.5,1.4,0.5c0.6,0,1-0.2,1.4-0.5s0.5-0.9,0.5-1.5
						v-3.6h0.7v3.6c0,0.5-0.1,0.9-0.2,1.2c-0.1,0.3-0.3,0.6-0.5,0.9c-0.2,0.2-0.5,0.4-0.8,0.5C117.9,59.5,117.6,59.6,117.2,59.6z"/>
					<path class="st0" d="M124.3,53.2h2.2c0.5,0,0.9,0.1,1.3,0.2c0.4,0.2,0.8,0.4,1,0.7c0.3,0.3,0.5,0.6,0.7,1s0.2,0.8,0.2,1.2v0
						c0,0.4-0.1,0.8-0.2,1.2s-0.4,0.7-0.7,1c-0.3,0.3-0.6,0.5-1,0.7c-0.4,0.2-0.9,0.2-1.3,0.2h-2.2V53.2z M126.4,58.8
						c0.4,0,0.7-0.1,1.1-0.2c0.3-0.1,0.6-0.3,0.8-0.5c0.2-0.2,0.4-0.5,0.5-0.8c0.1-0.3,0.2-0.6,0.2-1v0c0-0.3-0.1-0.7-0.2-1
						c-0.1-0.3-0.3-0.6-0.5-0.8c-0.2-0.2-0.5-0.4-0.8-0.5c-0.3-0.1-0.7-0.2-1.1-0.2H125v4.9H126.4z"/>
					<path class="st0" d="M142.8,53.2h2.6c0.4,0,0.7,0,0.9,0.1c0.3,0.1,0.5,0.2,0.7,0.4c0.3,0.3,0.4,0.6,0.4,1v0
						c0,0.2,0,0.4-0.1,0.5c-0.1,0.2-0.1,0.3-0.2,0.4c-0.1,0.1-0.2,0.2-0.3,0.3c-0.1,0.1-0.2,0.1-0.4,0.2c0.2,0.1,0.4,0.1,0.5,0.2
						c0.2,0.1,0.3,0.2,0.4,0.3c0.1,0.1,0.2,0.3,0.3,0.4c0.1,0.2,0.1,0.4,0.1,0.6v0c0,0.3-0.1,0.5-0.2,0.7c-0.1,0.2-0.3,0.4-0.5,0.5
						c-0.2,0.1-0.4,0.3-0.7,0.3c-0.3,0.1-0.6,0.1-0.9,0.1h-2.8V53.2z M145.3,56c0.4,0,0.8-0.1,1-0.3c0.3-0.2,0.4-0.5,0.4-0.8v0
						c0-0.3-0.1-0.6-0.4-0.7c-0.2-0.2-0.6-0.3-1-0.3h-1.9V56H145.3z M145.6,58.8c0.5,0,0.8-0.1,1.1-0.3c0.3-0.2,0.4-0.5,0.4-0.8v0
						c0-0.3-0.1-0.6-0.4-0.8c-0.3-0.2-0.7-0.3-1.2-0.3h-2v2.2H145.6z"/>
					<path class="st0" d="M152.1,53.2h0.7v6.2h-0.7V53.2z"/>
					<path class="st0" d="M157.4,53.2h4.5v0.6h-3.8V56h3.4v0.6h-3.4v2.2h3.8v0.6h-4.5V53.2z"/>
					<path class="st0" d="M166.2,53.2h0.7l3.9,5v-5h0.7v6.2h-0.6l-4-5.1v5.1h-0.7V53.2z"/>
					<path class="st0" d="M176,53.2h4.5v0.6h-3.8V56h3.4v0.6h-3.4v2.2h3.8v0.6H176V53.2z"/>
					<path class="st0" d="M186.9,59.5c-0.5,0-1-0.1-1.4-0.2c-0.4-0.2-0.8-0.4-1.2-0.8l0.4-0.5c0.3,0.3,0.7,0.5,1,0.7
						c0.3,0.1,0.7,0.2,1.1,0.2c0.4,0,0.8-0.1,1-0.3c0.3-0.2,0.4-0.5,0.4-0.8v0c0-0.1,0-0.3-0.1-0.4c0-0.1-0.1-0.2-0.2-0.3
						c-0.1-0.1-0.3-0.2-0.5-0.3s-0.5-0.2-0.8-0.2c-0.4-0.1-0.7-0.2-0.9-0.3c-0.3-0.1-0.5-0.2-0.7-0.4c-0.2-0.1-0.3-0.3-0.4-0.5
						c-0.1-0.2-0.1-0.4-0.1-0.7v0c0-0.2,0.1-0.5,0.2-0.7c0.1-0.2,0.2-0.4,0.4-0.5c0.2-0.2,0.4-0.3,0.6-0.4c0.2-0.1,0.5-0.1,0.8-0.1
						c0.5,0,0.9,0.1,1.2,0.2c0.3,0.1,0.7,0.3,1,0.6l-0.4,0.5c-0.3-0.2-0.6-0.4-0.9-0.5c-0.3-0.1-0.6-0.2-0.9-0.2
						c-0.4,0-0.7,0.1-1,0.3c-0.2,0.2-0.4,0.4-0.4,0.7v0c0,0.1,0,0.3,0.1,0.4c0,0.1,0.1,0.2,0.3,0.3c0.1,0.1,0.3,0.2,0.5,0.3
						c0.2,0.1,0.5,0.2,0.8,0.2c0.7,0.2,1.2,0.4,1.5,0.6c0.3,0.3,0.5,0.6,0.5,1.1v0c0,0.3-0.1,0.5-0.2,0.7c-0.1,0.2-0.3,0.4-0.4,0.6
						c-0.2,0.2-0.4,0.3-0.7,0.4C187.5,59.5,187.2,59.5,186.9,59.5z"/>
					<path class="st0" d="M194.9,53.9h-2.1v-0.6h4.9v0.6h-2.1v5.6h-0.7V53.9z"/>
					<path class="st0" d="M204.1,53.2h0.7l2.8,6.3h-0.8l-0.7-1.6h-3.4l-0.7,1.6h-0.7L204.1,53.2z M205.8,57.2l-1.4-3.2l-1.4,3.2
						H205.8z"/>
					<path class="st0" d="M211.6,53.2h2.7c0.4,0,0.7,0.1,1,0.2s0.5,0.3,0.7,0.5c0.2,0.2,0.3,0.3,0.4,0.5s0.1,0.4,0.1,0.7v0
						c0,0.3,0,0.5-0.1,0.7c-0.1,0.2-0.2,0.4-0.4,0.5c-0.2,0.2-0.3,0.3-0.5,0.4c-0.2,0.1-0.4,0.2-0.7,0.2l1.9,2.5h-0.9l-1.8-2.4h0
						h-1.8v2.4h-0.7V53.2z M214.3,56.4c0.2,0,0.4,0,0.6-0.1c0.2-0.1,0.4-0.1,0.5-0.3c0.1-0.1,0.3-0.2,0.3-0.4
						c0.1-0.2,0.1-0.3,0.1-0.5v0c0-0.4-0.1-0.7-0.4-0.9c-0.3-0.2-0.7-0.3-1.2-0.3h-1.9v2.5H214.3z"/>
					<path class="st0" d="M229.6,53.2h2.3c0.3,0,0.7,0,1,0.1c0.3,0.1,0.5,0.2,0.7,0.4c0.2,0.2,0.4,0.4,0.5,0.6
						c0.1,0.2,0.2,0.5,0.2,0.8v0c0,0.3-0.1,0.6-0.2,0.9c-0.1,0.3-0.3,0.5-0.5,0.6c-0.2,0.2-0.5,0.3-0.8,0.4
						c-0.3,0.1-0.6,0.1-0.9,0.1h-1.5v2.2h-0.7V53.2z M231.9,56.6c0.3,0,0.5,0,0.7-0.1c0.2-0.1,0.4-0.2,0.5-0.3
						c0.2-0.1,0.3-0.3,0.3-0.4c0.1-0.2,0.1-0.4,0.1-0.6v0c0-0.4-0.2-0.8-0.5-1c-0.3-0.2-0.7-0.3-1.2-0.3h-1.6v2.7H231.9z"/>
					<path class="st0" d="M238.4,53.2h4.5v0.6h-3.8V56h3.4v0.6h-3.4v2.2h3.8v0.6h-4.5V53.2z"/>
					<path class="st0" d="M247.1,53.2h2.7c0.4,0,0.7,0.1,1,0.2c0.3,0.1,0.5,0.3,0.7,0.5c0.2,0.2,0.3,0.3,0.4,0.5s0.1,0.4,0.1,0.7v0
						c0,0.3,0,0.5-0.1,0.7c-0.1,0.2-0.2,0.4-0.4,0.5c-0.2,0.2-0.3,0.3-0.5,0.4c-0.2,0.1-0.4,0.2-0.7,0.2l1.9,2.5h-0.9l-1.8-2.4h0
						h-1.8v2.4h-0.7V53.2z M249.8,56.4c0.2,0,0.4,0,0.6-0.1c0.2-0.1,0.4-0.1,0.5-0.3c0.1-0.1,0.3-0.2,0.3-0.4
						c0.1-0.2,0.1-0.3,0.1-0.5v0c0-0.4-0.1-0.7-0.4-0.9c-0.3-0.2-0.7-0.3-1.2-0.3h-1.9v2.5H249.8z"/>
					<path class="st0" d="M258.5,59.5c-0.5,0-1-0.1-1.4-0.2c-0.4-0.2-0.8-0.4-1.2-0.8l0.4-0.5c0.3,0.3,0.7,0.5,1,0.7
						c0.3,0.1,0.7,0.2,1.1,0.2c0.4,0,0.8-0.1,1-0.3c0.3-0.2,0.4-0.5,0.4-0.8v0c0-0.1,0-0.3-0.1-0.4c0-0.1-0.1-0.2-0.2-0.3
						c-0.1-0.1-0.3-0.2-0.5-0.3c-0.2-0.1-0.5-0.2-0.8-0.2c-0.4-0.1-0.7-0.2-0.9-0.3c-0.3-0.1-0.5-0.2-0.7-0.4
						c-0.2-0.1-0.3-0.3-0.4-0.5c-0.1-0.2-0.1-0.4-0.1-0.7v0c0-0.2,0.1-0.5,0.2-0.7c0.1-0.2,0.2-0.4,0.4-0.5c0.2-0.2,0.4-0.3,0.6-0.4
						c0.2-0.1,0.5-0.1,0.8-0.1c0.5,0,0.9,0.1,1.2,0.2c0.3,0.1,0.7,0.3,1,0.6l-0.4,0.5c-0.3-0.2-0.6-0.4-0.9-0.5
						c-0.3-0.1-0.6-0.2-0.9-0.2c-0.4,0-0.7,0.1-1,0.3c-0.2,0.2-0.4,0.4-0.4,0.7v0c0,0.1,0,0.3,0.1,0.4c0,0.1,0.1,0.2,0.3,0.3
						c0.1,0.1,0.3,0.2,0.5,0.3c0.2,0.1,0.5,0.2,0.8,0.2c0.7,0.2,1.2,0.4,1.5,0.6c0.3,0.3,0.5,0.6,0.5,1.1v0c0,0.3-0.1,0.5-0.2,0.7
						c-0.1,0.2-0.3,0.4-0.4,0.6c-0.2,0.2-0.4,0.3-0.7,0.4C259.1,59.5,258.8,59.5,258.5,59.5z"/>
					<path class="st0" d="M267.8,59.6c-0.5,0-0.9-0.1-1.3-0.3c-0.4-0.2-0.7-0.4-1-0.7c-0.3-0.3-0.5-0.6-0.6-1
						c-0.2-0.4-0.2-0.8-0.2-1.2v0c0-0.4,0.1-0.8,0.2-1.2c0.2-0.4,0.4-0.7,0.6-1c0.3-0.3,0.6-0.5,1-0.7c0.4-0.2,0.8-0.3,1.3-0.3
						c0.5,0,0.9,0.1,1.3,0.3c0.4,0.2,0.7,0.4,1,0.7c0.3,0.3,0.5,0.6,0.6,1s0.2,0.8,0.2,1.2c0,0,0,0,0,0c0,0.4-0.1,0.8-0.2,1.2
						c-0.2,0.4-0.4,0.7-0.6,1c-0.3,0.3-0.6,0.5-1,0.7C268.7,59.5,268.2,59.6,267.8,59.6z M267.8,58.9c0.4,0,0.7-0.1,1-0.2
						c0.3-0.1,0.6-0.3,0.8-0.5c0.2-0.2,0.4-0.5,0.5-0.8c0.1-0.3,0.2-0.6,0.2-1v0c0-0.4-0.1-0.7-0.2-1c-0.1-0.3-0.3-0.6-0.5-0.8
						c-0.2-0.2-0.5-0.4-0.8-0.6c-0.3-0.1-0.6-0.2-1-0.2s-0.7,0.1-1,0.2c-0.3,0.1-0.6,0.3-0.8,0.5c-0.2,0.2-0.4,0.5-0.5,0.8
						c-0.1,0.3-0.2,0.6-0.2,1v0c0,0.4,0.1,0.7,0.2,1s0.3,0.6,0.5,0.8c0.2,0.2,0.5,0.4,0.8,0.6C267.1,58.8,267.4,58.9,267.8,58.9z"/>
					<path class="st0" d="M275.2,53.2h0.7l3.9,5v-5h0.7v6.2h-0.6l-4-5.1v5.1h-0.7V53.2z"/>
					<path class="st0" d="M287.4,53.2h0.7l2.8,6.3h-0.8l-0.7-1.6H286l-0.7,1.6h-0.7L287.4,53.2z M289.1,57.2l-1.4-3.2l-1.4,3.2
						H289.1z"/>
					<path class="st0" d="M297,59.5c-0.5,0-1-0.1-1.4-0.2c-0.4-0.2-0.8-0.4-1.2-0.8l0.4-0.5c0.3,0.3,0.7,0.5,1,0.7
						c0.3,0.1,0.7,0.2,1.1,0.2c0.4,0,0.8-0.1,1-0.3c0.3-0.2,0.4-0.5,0.4-0.8v0c0-0.1,0-0.3-0.1-0.4c0-0.1-0.1-0.2-0.2-0.3
						c-0.1-0.1-0.3-0.2-0.5-0.3c-0.2-0.1-0.5-0.2-0.8-0.2c-0.4-0.1-0.7-0.2-0.9-0.3c-0.3-0.1-0.5-0.2-0.7-0.4
						c-0.2-0.1-0.3-0.3-0.4-0.5c-0.1-0.2-0.1-0.4-0.1-0.7v0c0-0.2,0.1-0.5,0.2-0.7c0.1-0.2,0.2-0.4,0.4-0.5c0.2-0.2,0.4-0.3,0.6-0.4
						c0.2-0.1,0.5-0.1,0.8-0.1c0.5,0,0.9,0.1,1.2,0.2c0.3,0.1,0.7,0.3,1,0.6l-0.4,0.5c-0.3-0.2-0.6-0.4-0.9-0.5
						c-0.3-0.1-0.6-0.2-0.9-0.2c-0.4,0-0.7,0.1-1,0.3c-0.2,0.2-0.4,0.4-0.4,0.7v0c0,0.1,0,0.3,0.1,0.4c0,0.1,0.1,0.2,0.3,0.3
						c0.1,0.1,0.3,0.2,0.5,0.3c0.2,0.1,0.5,0.2,0.8,0.2c0.7,0.2,1.2,0.4,1.5,0.6c0.3,0.3,0.5,0.6,0.5,1.1v0c0,0.3-0.1,0.5-0.2,0.7
						c-0.1,0.2-0.3,0.4-0.4,0.6c-0.2,0.2-0.4,0.3-0.7,0.4C297.6,59.5,297.3,59.5,297,59.5z"/>
				</g>
				<g>
					<circle class="st1" cx="134.4" cy="57.9" r="1.6"/>
					<circle class="st1" cx="220.8" cy="57.9" r="1.6"/>
					<circle class="st1" cx="303.3" cy="57.9" r="1.6"/>
				</g>
			</g>
		</g>
	</g>
</g>
</svg>
